<svg width="52" height="52" viewBox="0 0 52 52" fill="none" xmlns="http://www.w3.org/2000/svg">
<path fill-rule="evenodd" clip-rule="evenodd" d="M13.1403 5.71238C13.6262 6.38341 13.476 7.32121 12.805 7.80702C11.3621 8.85156 10.0505 10.0539 8.90082 11.4006C8.36294 12.0306 7.41613 12.1054 6.78608 11.5675C6.15602 11.0296 6.08129 10.0828 6.61918 9.45274C7.92818 7.91942 9.41653 6.55644 11.0457 5.37698C11.7167 4.89118 12.6545 5.04134 13.1403 5.71238Z" fill="#FBAB34"/>
<path fill-rule="evenodd" clip-rule="evenodd" d="M40.5795 45.1171C41.0406 45.8054 40.8565 46.7371 40.1682 47.1982C36.1163 49.9127 31.2433 51.5 26 51.5C23.4157 51.5 20.9248 51.1088 18.5771 50.3952C17.7845 50.1542 17.3372 49.3164 17.5782 48.5237C17.8191 47.7311 18.657 47.2839 19.4496 47.5248C21.5232 48.1552 23.7203 48.5 26 48.5C30.6287 48.5 34.9237 47.1006 38.4985 44.7058C39.1867 44.2447 40.1184 44.4289 40.5795 45.1171Z" fill="#FBAB34"/>
<path fill-rule="evenodd" clip-rule="evenodd" d="M2.89361 32.5862C3.67446 32.3094 4.53178 32.7181 4.80851 33.4989C6.21187 37.4589 8.67269 40.9139 11.8734 43.4999C12.5177 44.0205 12.6181 44.965 12.0974 45.6094C11.5768 46.2537 10.6324 46.3541 9.98797 45.8334C6.35664 42.8995 3.56946 38.9838 1.98083 34.5011C1.7041 33.7202 2.11277 32.8629 2.89361 32.5862Z" fill="#FBAB34"/>
<path fill-rule="evenodd" clip-rule="evenodd" d="M3.89555 16.5861C4.67642 16.8627 5.0852 17.72 4.80857 18.5009C3.97348 20.8582 3.5 23.3718 3.5 26C3.5 26.8284 2.82843 27.5 2 27.5C1.17157 27.5 0.5 26.8284 0.5 26C0.5 23.0069 1.03986 20.1551 1.98077 17.4991C2.25739 16.7182 3.11467 16.3095 3.89555 16.5861Z" fill="#FBAB34"/>
<path fill-rule="evenodd" clip-rule="evenodd" d="M26 3.5C23.7203 3.5 21.5232 3.84484 19.4496 4.47516C18.657 4.7161 17.8191 4.26888 17.5782 3.47626C17.3372 2.68364 17.7845 1.84578 18.5771 1.60484C20.9248 0.891164 23.4157 0.5 26 0.5C40.0844 0.5 51.5 11.9156 51.5 26C51.5 31.2619 49.8733 36.1219 47.1454 40.1714C46.6825 40.8585 45.7503 41.0402 45.0633 40.5774C44.3762 40.1145 44.1944 39.1823 44.6573 38.4953C47.0707 34.9127 48.5 30.6314 48.5 26C48.5 13.5724 38.4276 3.5 26 3.5Z" fill="#FBAB34"/>
<path fill-rule="evenodd" clip-rule="evenodd" d="M17.5267 25.9467C17.5267 25.1182 18.1982 24.4467 19.0267 24.4467H30.48C34.0204 24.4467 36.892 27.3182 36.892 30.8587C36.892 34.397 34.0226 37.2653 30.4827 37.2653H19.0267C18.1982 37.2653 17.5267 36.5938 17.5267 35.7653V25.9467ZM20.5267 27.4467V34.2653H30.4827C32.3668 34.2653 33.892 32.739 33.892 30.8587C33.892 28.9751 32.3636 27.4467 30.48 27.4467H20.5267Z" fill="#FBAB34"/>
<path fill-rule="evenodd" clip-rule="evenodd" d="M17.5267 15.8187C17.5267 14.9902 18.1982 14.3187 19.0267 14.3187H29.24C32.8658 14.3187 35.804 17.2569 35.804 20.8827C35.804 24.5084 32.8658 27.4467 29.24 27.4467C28.4116 27.4467 27.74 26.7751 27.74 25.9467C27.74 25.1182 28.4116 24.4467 29.24 24.4467C31.2089 24.4467 32.804 22.8516 32.804 20.8827C32.804 18.9138 31.2089 17.3187 29.24 17.3187H20.5267V25.9467C20.5267 26.7751 19.8551 27.4467 19.0267 27.4467C18.1982 27.4467 17.5267 26.7751 17.5267 25.9467V15.8187Z" fill="#FBAB34"/>
<path fill-rule="evenodd" clip-rule="evenodd" d="M25.424 11.4093C26.2524 11.4093 26.924 12.0809 26.924 12.9093V15.8107C26.924 16.6391 26.2524 17.3107 25.424 17.3107C24.5956 17.3107 23.924 16.6391 23.924 15.8107V12.9093C23.924 12.0809 24.5956 11.4093 25.424 11.4093Z" fill="#FBAB34"/>
<path fill-rule="evenodd" clip-rule="evenodd" d="M25.424 34.3187C26.2524 34.3187 26.924 34.9902 26.924 35.8187V39.0907C26.924 39.9191 26.2524 40.5907 25.424 40.5907C24.5956 40.5907 23.924 39.9191 23.924 39.0907V35.8187C23.924 34.9902 24.5956 34.3187 25.424 34.3187Z" fill="#FBAB34"/>
</svg>
