<svg width="58" height="52" viewBox="0 0 58 52" fill="none" xmlns="http://www.w3.org/2000/svg">
<path fill-rule="evenodd" clip-rule="evenodd" d="M10.3335 0.5C6.55839 0.5 3.50015 3.55824 3.50015 7.33333V32.7784C1.94044 33.3808 0.833496 34.895 0.833496 36.6667V39.3333C0.833496 41.6338 2.69974 43.5 5.00016 43.5H35.5002V47.3333C35.5002 49.6338 37.3664 51.5 39.6668 51.5H53.0002C55.3006 51.5 57.1668 49.6338 57.1668 47.3333V24.6667C57.1668 22.3662 55.3006 20.5 53.0002 20.5H51.8335V7.33333C51.8335 3.55824 48.7752 0.5 45.0001 0.5H10.3335ZM54.1668 40.5V24.6667C54.1668 24.0231 53.6437 23.5 53.0002 23.5H39.6668C39.0232 23.5 38.5002 24.0231 38.5002 24.6667V33.9941L38.5002 34L38.5002 34.0059V40.5H54.1668ZM38.5002 43.5H54.1668V47.3333C54.1668 47.9769 53.6437 48.5 53.0002 48.5H39.6668C39.0232 48.5 38.5002 47.9769 38.5002 47.3333V43.5ZM48.8335 7.33333V20.5H39.6668C37.3664 20.5 35.5002 22.3662 35.5002 24.6667V32.5H6.50015V7.33333C6.50015 5.21509 8.21525 3.5 10.3335 3.5H45.0001C47.1184 3.5 48.8335 5.21509 48.8335 7.33333ZM5.00016 35.5H35.5002V40.5H5.00016C4.35659 40.5 3.8335 39.9769 3.8335 39.3333V36.6667C3.8335 36.0231 4.35659 35.5 5.00016 35.5Z" fill="#FBAB34"/>
</svg>
